<svg xmlns="http://www.w3.org/2000/svg" viewBox="0 0 460 100" fill="none">
  <!-- Circle background -->
  <circle cx="50" cy="50" r="46" fill="#C41A1A"/>
  <!-- Diamond shape (rotated square) -->
  <path d="M50 8 L88 50 L50 92 L12 50 Z" fill="none" stroke="white" stroke-width="5"/>
  <!-- Inner circle -->
  <circle cx="50" cy="50" r="16" fill="none" stroke="white" stroke-width="5"/>
  <!-- Horizontal lines through circle -->
  <line x1="12" y1="50" x2="34" y2="50" stroke="white" stroke-width="5"/>
  <line x1="66" y1="50" x2="88" y2="50" stroke="white" stroke-width="5"/>
  <!-- Corner triangle fills to match logo -->
  <path d="M50 8 L12 50 L4 50 A46 46 0 0 1 50 4 Z" fill="#C41A1A"/>
  <path d="M88 50 L50 8 L50 4 A46 46 0 0 1 96 50 Z" fill="#C41A1A"/>
  <path d="M50 92 L88 50 L96 50 A46 46 0 0 1 50 96 Z" fill="#C41A1A"/>
  <path d="M12 50 L50 92 L50 96 A46 46 0 0 1 4 50 Z" fill="#C41A1A"/>
  <!-- Redraw diamond and circle on top -->
  <path d="M50 12 L84 50 L50 88 L16 50 Z" fill="none" stroke="white" stroke-width="4.5"/>
  <circle cx="50" cy="50" r="14" fill="none" stroke="white" stroke-width="4.5"/>
  <line x1="16" y1="50" x2="36" y2="50" stroke="white" stroke-width="4.5"/>
  <line x1="64" y1="50" x2="84" y2="50" stroke="white" stroke-width="4.5"/>
  <!-- VGARCO text -->
  <text x="115" y="67" font-family="Arial, Helvetica, sans-serif" font-weight="900" font-size="56" fill="#C41A1A" letter-spacing="2">VGARCO</text>
</svg>
